<?xml version="1.0" encoding="utf-8"?>
<svg id="svg3023" viewBox="0 0 500 1200" xmlns="http://www.w3.org/2000/svg">
  <title>Demo - Pendrive</title>
  <desc>Source: openclipart.org/detail/74809</desc>
  <g>
    <path style="fill: #888a85" d="M 203.965 219.103 L 81.225 289.963 L 296.025 413.983 L 418.775 343.113 L 203.965 219.103 Z"/>
    <path style="fill: #2e3436" d="M 296.025 1122.633 L 296.025 413.973 L 81.225 289.963 L 81.225 998.623 L 296.025 1122.633 Z"/>
    <path style="fill: #555753" d="M 296.025 1122.633 L 296.025 413.973 L 418.765 343.107 L 418.765 1051.767 L 296.025 1122.633 Z"/>
    <path style="fill: #888a85" d="M 112.023 803.722 L 265.344 892.239 L 265.344 793.885 L 112.023 705.368 L 112.023 725.038 L 248.301 803.72 L 248.301 862.733 L 112.023 784.05 L 112.023 803.722 Z"/>
    <path style="fill: #888a85" d="M 112.023 685.697 L 112.023 587.343 L 129.058 597.178 L 129.058 675.861 L 180.164 705.367 L 180.164 626.685 L 265.341 675.861 L 265.341 774.215 L 248.305 764.379 L 248.305 685.697 L 197.199 656.19 L 197.199 734.873 L 112.023 685.697 Z"/>
    <path style="fill: #888a85" d="M 112.012 489.063 L 112.012 567.755 L 265.333 656.267 L 265.333 557.901 L 180.152 508.736 L 180.152 528.409 L 112.007 489.063 Z M 129.048 518.59 L 180.156 548.082 L 180.156 587.429 L 129.048 557.901 L 129.048 518.59 Z M 197.193 538.229 L 248.301 567.756 L 248.301 626.775 L 197.193 597.248 L 197.193 538.229 Z"/>
  </g>
  <g>
    <path style="fill: #babdb6" d="M 142.597 112.799 L 296.027 201.382 L 296.027 378.552 L 142.597 289.969 L 142.597 112.799 Z"/>
    <path style="fill: #888a85" d="M 173.283 236.813 L 173.283 272.246 L 203.969 289.963 L 203.969 254.53 L 173.283 236.813 Z"/>
    <path style="fill: #888a85" d="M 234.655 272.243 L 234.655 307.676 L 265.341 325.393 L 265.341 289.96 L 234.655 272.243 Z"/>
    <path style="fill: #eeeeec" d="M 296.025 201.383 L 357.397 165.95 L 357.397 343.12 L 296.025 378.553 L 296.025 201.383 Z"/>
    <path style="fill: #eeeeec" d="M 203.965 77.366 L 142.597 112.799 L 296.027 201.383 L 357.397 165.953 L 203.967 77.366 Z"/>
    <path style="fill: #555753" d="M 173.283 112.799 L 203.965 95.083 L 326.715 165.953 L 296.025 183.663 L 173.285 112.799 Z"/>
    <path style="fill: #eeeeec" d="M 203.965 95.083 L 203.965 112.8 L 188.622 103.942 L 203.965 95.084 Z"/>
    <path style="fill: #888a85" d="M 311.365 174.803 L 188.625 103.941 L 173.283 112.799 L 296.023 183.663 L 311.366 174.805 Z"/>
  </g>
</svg>