<?xml version="1.0" encoding="utf-8"?>
<svg viewBox="0 0 330 180" xmlns="http://www.w3.org/2000/svg" xmlns:xlink="http://www.w3.org/1999/xlink" xmlns:bx="https://boxy-svg.com">
  <title>Badge - Install</title>
  <defs>
    <symbol id="symbol-0" viewBox="0 0 28.2562 32.8079" bx:pinned="true">
      <g transform="matrix(0.037220922144329815, 0, 0, 0.037220922144329815, -4.9290187809475015, -2.6531782782871005)" style="">
        <g transform="matrix(1, 0, 0, 1, -0.009985, -0.086926)">
          <path d="M 132.446 732.109 L 132.446 291.613 L 335.279 409.478 L 335.279 614.581 L 132.446 732.109 Z" style="fill: rgb(222, 101, 71);"/>
          <path d="M 512.985 952.772 L 512.985 722.474 L 335.246 614.587 L 132.436 732.113 L 512.985 952.772 Z" style="fill: rgb(253, 188, 77);"/>
          <path d="M 688.748 291.613 L 688.748 732.109 L 891.581 614.244 L 891.581 409.141 L 688.748 291.613 Z" transform="matrix(-1, 0, 0, -1, 1580.328821, 1023.722101)" style="fill: rgb(105, 179, 86);"/>
          <path d="M 891.584 614.587 L 891.584 844.918 L 715.811 952.805 L 512.985 835.296 L 891.584 614.587 Z" style="fill: rgb(209, 233, 147);" transform="matrix(-1, 0, 0, -1, 1404.568879, 1567.391977)"/>
          <path d="M 512.985 71.402 L 512.985 301.7 L 335.246 409.587 L 132.436 292.061 L 512.985 71.402 Z" style="fill: rgb(128, 183, 250);"/>
          <path d="M 891.584 409.587 L 891.584 179.256 L 715.811 71.369 L 512.985 188.878 L 891.584 409.587 Z" transform="matrix(-1, 0, 0, -1, 1404.568879, 480.95587)" style="fill: rgb(69, 129, 225);"/>
        </g>
        <g transform="matrix(3.215432, 0, 0, 3.215432, -1124.264648, -1130.190796)">
          <path d="M 531.594 520.131 L 559.629 520.131 C 562.094 522.697 565.559 524.29 569.407 524.29 C 576.895 524.29 582.97 518.219 582.97 510.721 C 582.97 503.227 576.895 497.153 569.407 497.153 C 565.567 497.153 562.094 498.754 559.629 501.317 L 531.594 501.317 L 551.414 481.489 C 551.504 481.489 551.588 481.496 551.679 481.496 C 559.173 481.496 565.247 475.421 565.247 467.927 C 565.247 460.432 559.173 454.359 551.679 454.359 C 544.184 454.359 538.11 460.432 538.11 467.927 C 538.11 468.011 538.115 468.101 538.115 468.186 L 518.294 488.01 L 518.294 459.981 C 520.854 457.51 522.453 454.047 522.453 450.208 C 522.453 442.703 516.372 436.631 508.884 436.631 C 501.388 436.631 495.311 442.707 495.311 450.208 C 495.311 454.047 496.909 457.51 499.471 459.981 L 499.471 488.01 L 479.648 468.186 C 479.648 468.101 479.652 468.011 479.652 467.927 C 479.652 460.432 473.581 454.359 466.084 454.359 C 458.587 454.359 452.508 460.432 452.508 467.927 C 452.508 475.421 458.581 481.496 466.078 481.496 C 466.164 481.496 466.252 481.489 466.336 481.489 L 486.164 501.317 L 458.128 501.317 C 455.66 498.749 452.194 497.153 448.354 497.153 C 440.86 497.153 434.787 503.227 434.787 510.721 C 434.787 518.219 440.86 524.29 448.354 524.29 C 452.194 524.29 455.665 522.697 458.128 520.131 L 486.164 520.131 L 466.336 539.954 C 466.252 539.954 466.164 539.947 466.078 539.947 C 458.581 539.947 452.508 546.02 452.508 553.522 C 452.508 561.012 458.581 567.092 466.078 567.092 C 473.574 567.092 479.648 561.012 479.648 553.522 C 479.648 553.431 479.641 553.347 479.641 553.258 L 499.463 533.432 L 499.463 561.47 C 496.903 563.935 495.306 567.398 495.306 571.245 C 495.306 578.74 501.384 584.812 508.88 584.812 C 516.368 584.812 522.445 578.74 522.445 571.245 C 522.445 567.404 520.847 563.935 518.288 561.47 L 518.288 533.432 L 538.11 553.258 C 538.11 553.347 538.104 553.426 538.104 553.522 C 538.104 561.012 544.176 567.092 551.672 567.092 C 559.167 567.092 565.241 561.012 565.241 553.522 C 565.241 546.02 559.167 539.947 551.672 539.947 C 551.581 539.947 551.5 539.954 551.409 539.954 Z" style="fill: rgb(255, 255, 255); paint-order: stroke; stroke: rgb(47, 47, 47); stroke-width: 20.7915;"/>
        </g>
      </g>
    </symbol>
  </defs>
  <g id="g-1" style="display: inline; filter: none;" transform="matrix(0.414766, 0, 0, 0.336099, -48.33939, 121.113174)"/>
  <g id="g-2" transform="matrix(0.336205, 0, 0, 0.336205, -36.52499, -151.889603)" style="display: inline; filter: none;">
    <path style="color:#000000;clip-rule:nonzero;display:inline;overflow:visible;visibility:visible;opacity:1;isolation:auto;mix-blend-mode:normal;color-interpolation:sRGB;color-interpolation-filters:linearRGB;solid-color:#000000;solid-opacity:1;fill:#f6f7fc;fill-opacity:1;fill-rule:evenodd;stroke:#252f71;stroke-width:4;stroke-linecap:round;stroke-linejoin:round;stroke-miterlimit:4;stroke-dasharray:none;stroke-dashoffset:0;stroke-opacity:1;color-rendering:auto;image-rendering:auto;shape-rendering:auto;text-rendering:auto;enable-background:accumulate" d="M 154.445 871.703 L 1044.377 871.703" id="path-1"/>
    <g>
      <rect style="color: rgb(0, 0, 0); clip-rule: nonzero; display: inline; overflow: visible; visibility: visible; opacity: 1; isolation: auto; mix-blend-mode: normal; color-interpolation: srgb; color-interpolation-filters: linearrgb; fill-opacity: 1; fill-rule: evenodd; stroke: none; stroke-width: 0; stroke-linecap: butt; stroke-linejoin: miter; stroke-miterlimit: 4; stroke-dasharray: none; stroke-dashoffset: 0; stroke-opacity: 1; color-rendering: auto; image-rendering: auto; shape-rendering: auto; text-rendering: auto; fill: rgb(174, 174, 174);" id="rect-1" width="127.579" height="225.282" x="254.062" y="646.42" ry="8.713"/>
      <rect style="color: rgb(0, 0, 0); clip-rule: nonzero; display: inline; overflow: visible; visibility: visible; opacity: 1; isolation: auto; mix-blend-mode: normal; color-interpolation: srgb; color-interpolation-filters: linearrgb; fill-opacity: 1; fill-rule: evenodd; stroke: none; stroke-width: 1px; stroke-linecap: butt; stroke-linejoin: miter; stroke-miterlimit: 4; stroke-dasharray: none; stroke-dashoffset: 0; stroke-opacity: 1; color-rendering: auto; image-rendering: auto; shape-rendering: auto; text-rendering: auto; fill: rgb(228, 228, 228);" id="rect-10" width="127.579" height="195.544" x="254.062" y="658.463"/>
      <path style="color:#000000;clip-rule:nonzero;display:inline;overflow:visible;visibility:visible;opacity:1;isolation:auto;mix-blend-mode:normal;color-interpolation:sRGB;color-interpolation-filters:linearRGB;solid-color:#000000;solid-opacity:1;fill:#e0e3f6;fill-opacity:1;fill-rule:evenodd;stroke:#252f71;stroke-width:4;stroke-linecap:round;stroke-linejoin:round;stroke-miterlimit:4;stroke-dasharray:none;stroke-dashoffset:0;stroke-opacity:1;color-rendering:auto;image-rendering:auto;shape-rendering:auto;text-rendering:auto;enable-background:accumulate" d="M 254.062 658.463 L 381.641 658.463" id="path-9"/>
      <rect style="color:#000000;clip-rule:nonzero;display:inline;overflow:visible;visibility:visible;opacity:1;isolation:auto;mix-blend-mode:normal;color-interpolation:sRGB;color-interpolation-filters:linearRGB;solid-color:#000000;solid-opacity:1;fill:#252f71;fill-opacity:1;fill-rule:evenodd;stroke:none;stroke-width:1.00000012px;stroke-linecap:butt;stroke-linejoin:miter;stroke-miterlimit:4;stroke-dasharray:none;stroke-dashoffset:0;stroke-opacity:1;color-rendering:auto;image-rendering:auto;shape-rendering:auto;text-rendering:auto;enable-background:accumulate" id="rect-11" width="17.663" height="5.047" x="309.02" y="649.918" ry="2.523"/>
      <circle style="color:#000000;clip-rule:nonzero;display:inline;overflow:visible;visibility:visible;opacity:1;isolation:auto;mix-blend-mode:normal;color-interpolation:sRGB;color-interpolation-filters:linearRGB;solid-color:#000000;solid-opacity:1;fill:#252f71;fill-opacity:1;fill-rule:evenodd;stroke:none;stroke-width:4;stroke-linecap:round;stroke-linejoin:round;stroke-miterlimit:4;stroke-dasharray:none;stroke-dashoffset:0;stroke-opacity:1;color-rendering:auto;image-rendering:auto;shape-rendering:auto;text-rendering:auto;enable-background:accumulate" id="circle-1" cx="301.45" cy="652.442" r="2.523"/>
      <rect style="color:#000000;clip-rule:nonzero;display:inline;overflow:visible;visibility:visible;opacity:1;isolation:auto;mix-blend-mode:normal;color-interpolation:sRGB;color-interpolation-filters:linearRGB;solid-color:#000000;solid-opacity:1;fill:#252f71;fill-opacity:1;fill-rule:evenodd;stroke:none;stroke-width:1.00000012px;stroke-linecap:butt;stroke-linejoin:miter;stroke-miterlimit:4;stroke-dasharray:none;stroke-dashoffset:0;stroke-opacity:1;color-rendering:auto;image-rendering:auto;shape-rendering:auto;text-rendering:auto;enable-background:accumulate" id="rect-12" width="22.485" height="8.813" x="306.609" y="858.449" ry="1.979"/>
      <rect style="color: rgb(0, 0, 0); clip-rule: nonzero; display: inline; overflow: visible; visibility: visible; opacity: 1; isolation: auto; mix-blend-mode: normal; color-interpolation: srgb; color-interpolation-filters: linearrgb; fill: none; fill-opacity: 1; fill-rule: evenodd; stroke-width: 4; stroke-linecap: butt; stroke-linejoin: miter; stroke-miterlimit: 4; stroke-dasharray: none; stroke-dashoffset: 0; stroke-opacity: 1; color-rendering: auto; image-rendering: auto; shape-rendering: auto; text-rendering: auto; stroke: rgb(53, 53, 53);" id="rect-13" width="127.579" height="225.282" x="254.062" y="646.42" ry="8.713"/>
      <rect style="color: rgb(0, 0, 0); clip-rule: nonzero; display: inline; overflow: visible; visibility: visible; opacity: 1; isolation: auto; mix-blend-mode: normal; color-interpolation: srgb; color-interpolation-filters: linearrgb; fill-opacity: 1; fill-rule: evenodd; stroke: none; stroke-width: 1px; stroke-linecap: butt; stroke-linejoin: miter; stroke-miterlimit: 4; stroke-dasharray: none; stroke-dashoffset: 0; stroke-opacity: 1; color-rendering: auto; image-rendering: auto; shape-rendering: auto; text-rendering: auto; fill: rgb(247, 247, 247);" id="rect-14" width="109.815" height="176.527" x="262.944" y="667.145" ry="3.23"/>
      <path style="color:#000000;clip-rule:nonzero;display:inline;overflow:visible;visibility:visible;opacity:1;isolation:auto;mix-blend-mode:normal;color-interpolation:sRGB;color-interpolation-filters:linearRGB;solid-color:#000000;solid-opacity:1;fill:#e0e3f6;fill-opacity:1;fill-rule:evenodd;stroke:#252f71;stroke-width:4;stroke-linecap:round;stroke-linejoin:round;stroke-miterlimit:4;stroke-dasharray:none;stroke-dashoffset:0;stroke-opacity:1;color-rendering:auto;image-rendering:auto;shape-rendering:auto;text-rendering:auto;enable-background:accumulate" d="M 254.062 854.008 L 381.641 854.008" id="path-10"/>
      <path style="color:#000000;clip-rule:nonzero;display:inline;overflow:visible;visibility:visible;opacity:1;isolation:auto;mix-blend-mode:normal;color-interpolation:sRGB;color-interpolation-filters:linearRGB;solid-color:#000000;solid-opacity:1;fill:none;fill-opacity:1;fill-rule:evenodd;stroke:#e0e3f6;stroke-width:3;stroke-linecap:butt;stroke-linejoin:round;stroke-miterlimit:4;stroke-dasharray:none;stroke-dashoffset:0;stroke-opacity:1;color-rendering:auto;image-rendering:auto;shape-rendering:auto;text-rendering:auto;enable-background:accumulate" d="M 271.032 846.495 L 350.623 846.495" id="path-11"/>
      <use width="28.256200790405273" height="32.807899475097656" transform="matrix(2.4277660846710205, 0, 0, 2.4277660846710205, 283.5517883300781, 715.5835571289062)" style="" xlink:href="#symbol-0"/>
    </g>
    <g>
      <rect style="color: rgb(0, 0, 0); clip-rule: nonzero; display: inline; overflow: visible; visibility: visible; opacity: 1; isolation: auto; mix-blend-mode: normal; color-interpolation: srgb; color-interpolation-filters: linearrgb; fill-opacity: 1; fill-rule: evenodd; stroke-width: 4; stroke-linecap: butt; stroke-linejoin: miter; stroke-miterlimit: 4; stroke-dasharray: none; stroke-dashoffset: 0; stroke-opacity: 1; color-rendering: auto; image-rendering: auto; shape-rendering: auto; text-rendering: auto; fill: rgb(174, 174, 174); stroke: rgb(53, 53, 53);" id="rect-2" width="410.359" height="287.517" x="491.12" y="567.238" ry="13.363"/>
      <path style="color: rgb(0, 0, 0); clip-rule: nonzero; display: inline; overflow: visible; visibility: visible; opacity: 1; isolation: auto; mix-blend-mode: normal; color-interpolation: srgb; color-interpolation-filters: linearrgb; fill-opacity: 1; fill-rule: evenodd; stroke: none; stroke-width: 8; stroke-linecap: round; stroke-linejoin: round; stroke-miterlimit: 4; stroke-dasharray: none; stroke-dashoffset: 0; stroke-opacity: 1; color-rendering: auto; image-rendering: auto; shape-rendering: auto; text-rendering: auto; fill: rgb(174, 174, 174);" d="M 446.631 836.511 C 446.631 836.511 447.862 846.205 454.268 856.763 C 462.814 870.85 475.184 871.703 475.184 871.703 L 696.299 871.703 L 917.414 871.703 C 917.414 871.703 929.784 870.85 938.33 856.763 C 944.736 846.205 945.967 836.511 945.967 836.511 L 696.299 836.511 L 446.631 836.511 Z" id="path-2"/>
      <path style="color: rgb(0, 0, 0); clip-rule: nonzero; display: inline; overflow: visible; visibility: visible; opacity: 1; isolation: auto; mix-blend-mode: normal; color-interpolation: srgb; color-interpolation-filters: linearrgb; fill-opacity: 1; fill-rule: evenodd; stroke: none; stroke-width: 1px; stroke-linecap: butt; stroke-linejoin: miter; stroke-miterlimit: 4; stroke-dasharray: none; stroke-dashoffset: 0; stroke-opacity: 1; color-rendering: auto; image-rendering: auto; shape-rendering: auto; text-rendering: auto; fill: rgb(208, 208, 208);" d="M 637.139 836.511 C 637.139 843.535 642.793 849.189 649.817 849.189 L 742.781 849.189 C 749.805 849.189 755.459 843.535 755.459 836.511 L 637.139 836.511 Z" id="path-3"/>
      <path style="color: rgb(0, 0, 0); clip-rule: nonzero; display: inline; overflow: visible; visibility: visible; opacity: 1; isolation: auto; mix-blend-mode: normal; color-interpolation: srgb; color-interpolation-filters: linearrgb; fill: none; fill-opacity: 1; fill-rule: evenodd; stroke-width: 4; stroke-linecap: round; stroke-linejoin: round; stroke-miterlimit: 4; stroke-dasharray: none; stroke-dashoffset: 0; stroke-opacity: 1; color-rendering: auto; image-rendering: auto; shape-rendering: auto; text-rendering: auto; stroke: rgb(53, 53, 53);" d="M 446.631 836.511 C 446.631 836.511 447.862 846.205 454.268 856.763 C 462.814 870.85 475.184 871.703 475.184 871.703 L 696.299 871.703 L 917.414 871.703 C 917.414 871.703 929.784 870.85 938.33 856.763 C 944.736 846.205 945.967 836.511 945.967 836.511 L 696.299 836.511 L 446.631 836.511 Z" id="path-4"/>
      <rect style="color: rgb(0, 0, 0); clip-rule: nonzero; display: inline; overflow: visible; visibility: visible; opacity: 1; isolation: auto; mix-blend-mode: normal; color-interpolation: srgb; color-interpolation-filters: linearrgb; fill-opacity: 1; fill-rule: evenodd; stroke: rgb(37, 47, 113); stroke-width: 4; stroke-linecap: butt; stroke-linejoin: miter; stroke-miterlimit: 4; stroke-dasharray: none; stroke-dashoffset: 0; stroke-opacity: 1; color-rendering: auto; image-rendering: auto; shape-rendering: auto; text-rendering: auto; fill: rgb(228, 228, 228);" id="rect-3" width="380.47" height="230.084" x="506.064" y="582.182" ry="3.756"/>
      <g transform="matrix(1, 0, 0, 1, 75.16098, -15.620506)">
        <rect style="color: rgb(0, 0, 0); clip-rule: nonzero; display: inline; overflow: visible; visibility: visible; opacity: 1; isolation: auto; mix-blend-mode: normal; color-interpolation: srgb; color-interpolation-filters: linearrgb; fill-opacity: 1; fill-rule: evenodd; stroke: none; stroke-width: 2; stroke-linecap: butt; stroke-linejoin: miter; stroke-miterlimit: 4; stroke-dasharray: none; stroke-dashoffset: 0; stroke-opacity: 1; color-rendering: auto; image-rendering: auto; shape-rendering: auto; text-rendering: auto; fill: rgb(247, 247, 247);" id="rect-4" width="274.734" height="155.413" x="483.439" y="635.138" ry="6.104"/>
        <path style="color: rgb(0, 0, 0); clip-rule: nonzero; display: inline; overflow: visible; visibility: visible; opacity: 1; isolation: auto; mix-blend-mode: normal; color-interpolation: srgb; color-interpolation-filters: linearrgb; fill-opacity: 1; fill-rule: evenodd; stroke: none; stroke-width: 1px; stroke-linecap: butt; stroke-linejoin: miter; stroke-miterlimit: 4; stroke-dasharray: none; stroke-dashoffset: 0; stroke-opacity: 1; color-rendering: auto; image-rendering: auto; shape-rendering: auto; text-rendering: auto; fill: rgb(174, 174, 174);" d="M 489.517 635.139 C 486.136 635.139 483.414 637.861 483.414 641.243 L 483.414 647.202 L 759.234 647.202 L 759.234 641.243 C 759.234 637.861 756.51 635.139 753.128 635.139 L 489.517 635.139 Z" id="path-5"/>
        <rect style="color:#000000;clip-rule:nonzero;display:inline;overflow:visible;visibility:visible;opacity:1;isolation:auto;mix-blend-mode:normal;color-interpolation:sRGB;color-interpolation-filters:linearRGB;solid-color:#000000;solid-opacity:1;fill:#e0e3f6;fill-opacity:1;fill-rule:evenodd;stroke:none;stroke-width:1.00000012px;stroke-linecap:butt;stroke-linejoin:miter;stroke-miterlimit:4;stroke-dasharray:none;stroke-dashoffset:0;stroke-opacity:1;color-rendering:auto;image-rendering:auto;shape-rendering:auto;text-rendering:auto;enable-background:accumulate" id="rect-5" width="6.808" height="6.808" x="748.023" y="637.766" ry="3.404"/>
        <rect style="color:#000000;clip-rule:nonzero;display:inline;overflow:visible;visibility:visible;opacity:1;isolation:auto;mix-blend-mode:normal;color-interpolation:sRGB;color-interpolation-filters:linearRGB;solid-color:#000000;solid-opacity:1;fill:#c0d2e8;fill-opacity:1;fill-rule:evenodd;stroke:none;stroke-width:1.00000012px;stroke-linecap:butt;stroke-linejoin:miter;stroke-miterlimit:4;stroke-dasharray:none;stroke-dashoffset:0;stroke-opacity:1;color-rendering:auto;image-rendering:auto;shape-rendering:auto;text-rendering:auto;enable-background:accumulate" id="rect-6" width="6.808" height="6.808" x="737.811" y="637.766" ry="3.404"/>
        <rect style="color: rgb(0, 0, 0); clip-rule: nonzero; display: inline; overflow: visible; visibility: visible; opacity: 1; isolation: auto; mix-blend-mode: normal; color-interpolation: srgb; color-interpolation-filters: linearrgb; fill: none; fill-opacity: 1; fill-rule: evenodd; stroke-width: 2; stroke-linecap: butt; stroke-linejoin: miter; stroke-miterlimit: 4; stroke-dasharray: none; stroke-dashoffset: 0; stroke-opacity: 1; color-rendering: auto; image-rendering: auto; shape-rendering: auto; text-rendering: auto; stroke: rgb(174, 174, 174);" id="rect-7" width="276.43" height="155.413" x="482.923" y="635.138" ry="6.104"/>
        <use width="28.256200790405273" height="32.807899475097656" transform="matrix(2.394604, 0, 0, 2.394604, 586.974792, 679.561829)" style="" xlink:href="#symbol-0"/>
      </g>
      <circle style="color:#000000;clip-rule:nonzero;display:inline;overflow:visible;visibility:visible;opacity:1;isolation:auto;mix-blend-mode:normal;color-interpolation:sRGB;color-interpolation-filters:linearRGB;solid-color:#000000;solid-opacity:1;fill:#252f71;fill-opacity:1;fill-rule:evenodd;stroke:none;stroke-width:4;stroke-linecap:round;stroke-linejoin:round;stroke-miterlimit:4;stroke-dasharray:none;stroke-dashoffset:0;stroke-opacity:1;color-rendering:auto;image-rendering:auto;shape-rendering:auto;text-rendering:auto;enable-background:accumulate" id="circle-2" cx="696.299" cy="574.71" r="3.134"/>
    </g>
  </g>
</svg>