<?xml version="1.0" encoding="utf-8"?>
<svg viewBox="5.5 5.5 109 109" xmlns="http://www.w3.org/2000/svg">
  <linearGradient id="a" x2="1" gradientTransform="matrix(0, 95.247263, -95.247269, 0, 51.804928, 12.462713)" gradientUnits="userSpaceOnUse">
    <stop offset="0" stop-color="#ff1b2d"/>
    <stop offset="0.3" stop-color="#ff1b2d"/>
    <stop offset="0.61" stop-color="#ff1b2d"/>
    <stop offset="1" stop-color="#a70014"/>
  </linearGradient>
  <linearGradient id="b" x2="1" gradientTransform="matrix(0, 84.241539, -84.241546, 0, 76.482079, 18.076042)" gradientUnits="userSpaceOnUse">
    <stop offset="0" stop-color="#9c0000"/>
    <stop offset="0.7" stop-color="#ff4b4b"/>
    <stop offset="1" stop-color="#ff4b4b"/>
  </linearGradient>
  <g transform="matrix(1.109054, 0, 0, 1.109054, -6.543214, -6.543213)">
    <path fill="url(#a)" d="M 60 10.859 C 32.862 10.859 10.859 32.862 10.859 60 C 10.859 86.355 31.611 107.86 57.663 109.082 C 58.445 109.122 59.218 109.141 60 109.141 C 72.586 109.141 84.057 104.408 92.751 96.633 C 86.991 100.457 80.253 102.648 73.055 102.648 C 61.35 102.648 50.876 96.839 43.825 87.685 C 38.388 81.27 34.877 71.794 34.632 61.154 L 34.632 58.836 C 34.877 48.196 38.388 38.71 43.825 32.305 C 50.876 23.152 61.359 17.343 73.055 17.343 C 80.253 17.343 86.991 19.543 92.751 23.367 C 84.106 15.631 72.694 10.908 60.186 10.859 L 60 10.859 Z"/>
    <path fill="url(#b)" d="M 43.825 32.305 C 48.333 26.985 54.162 23.768 60.518 23.768 C 74.825 23.768 86.424 39.992 86.424 59.99 C 86.424 79.999 74.825 96.213 60.518 96.213 C 54.152 96.213 48.333 93.005 43.825 87.685 C 50.876 96.839 61.35 102.648 73.055 102.648 C 80.253 102.648 86.991 100.447 92.751 96.633 C 102.814 87.636 109.141 74.561 109.141 60 C 109.141 45.448 102.814 32.364 92.751 23.367 C 86.991 19.543 80.253 17.352 73.055 17.352 C 61.35 17.352 50.876 23.161 43.825 32.315"/>
  </g>
</svg>