<?xml version="1.0" encoding="utf-8"?>
<svg viewBox="1 1 190 190" xmlns="http://www.w3.org/2000/svg" xmlns:xlink="http://www.w3.org/1999/xlink">
  <defs>
    <linearGradient id="b" x1="29.34" x2="81.84" y1="75.02" y2="44.35" gradientUnits="userSpaceOnUse">
      <stop offset="0" stop-color="#a52714" stop-opacity=".6"/>
      <stop offset="0.66" stop-color="#a52714" stop-opacity="0"/>
    </linearGradient>
    <linearGradient id="c" x1="110.87" x2="52.54" y1="164.5" y2="130.33" gradientUnits="userSpaceOnUse">
      <stop offset="0" stop-color="#055524" stop-opacity=".4"/>
      <stop offset="0.33" stop-color="#055524" stop-opacity="0"/>
    </linearGradient>
    <linearGradient id="a" x1="121.86" x2="136.55" y1="49.8" y2="114.13" gradientUnits="userSpaceOnUse">
      <stop offset="0" stop-color="#ea6100" stop-opacity=".3"/>
      <stop offset="0.66" stop-color="#ea6100" stop-opacity="0"/>
    </linearGradient>
    <linearGradient id="i" x1="121.86" x2="136.55" y1="49.8" y2="114.13" gradientUnits="userSpaceOnUse" xlink:href="#a"/>
    <linearGradient id="l" x1="29.34" x2="81.84" y1="75.02" y2="44.35" gradientUnits="userSpaceOnUse" xlink:href="#b"/>
    <radialGradient id="d" cx="668.18" cy="55.95" r="84.08" gradientTransform="matrix(1, 0, 0, 1, -576, 0)" gradientUnits="userSpaceOnUse">
      <stop offset="0" stop-color="#3e2723" stop-opacity=".2"/>
      <stop offset="1" stop-color="#3e2723" stop-opacity="0"/>
    </radialGradient>
    <linearGradient id="o" x1="110.87" x2="52.54" y1="164.5" y2="130.33" gradientUnits="userSpaceOnUse" xlink:href="#c"/>
    <radialGradient id="p" cx="597.88" cy="48.52" r="78.04" gradientTransform="matrix(1, 0, 0, 1, -576, 0)" gradientUnits="userSpaceOnUse" xlink:href="#d"/>
    <radialGradient id="q" cx="671.84" cy="96.14" r="87.87" gradientTransform="matrix(1, 0, 0, 1, -576, 0)" gradientUnits="userSpaceOnUse">
      <stop offset="0" stop-color="#263238" stop-opacity=".2"/>
      <stop offset="1" stop-color="#263238" stop-opacity="0"/>
    </radialGradient>
    <radialGradient id="r" cx="34.29" cy="32.01" r="176.75" gradientUnits="userSpaceOnUse" gradientTransform="matrix(1, 0, 0, 1, 0, 0)">
      <stop offset="0" stop-color="#fff" stop-opacity=".1"/>
      <stop offset="1" stop-color="#fff" stop-opacity="0"/>
    </radialGradient>
    <circle id="e" cx="96" cy="96" r="88"/>
  </defs>
  <clipPath id="f">
    <circle cx="96" cy="96" r="88" overflow="visible"/>
  </clipPath>
  <g transform="matrix(1.072969, 0, 0, 1.072969, -7.005015, -7.005015)">
    <g clip-path="url(#f)">
      <path fill="#db4437" d="M22 8v108h39.4L96 56h88V8z"/>
      <path fill="url(#b)" d="M22 8v108h39.4L96 56h88V8z"/>
    </g>
    <path fill="#3e2723" fill-opacity=".15" d="M 62.3 115.7 L 22.5 47.4 L 21.9 48.4 L 60.9 116.2 Z" clip-path="url(#f)"/>
    <g clip-path="url(#f)">
      <path fill="#0f9d58" d="M8 184h83.8l39-39v-29H61.2L8 24.5z"/>
      <path fill="url(#c)" d="M8 184h83.8l39-39v-29H61.2L8 24.5z"/>
    </g>
    <path fill="#263238" fill-opacity=".15" d="M 129.8 117.3 L 129 116.9 L 90.7 183.9 L 91.7 183.9 L 130 116.9 Z" clip-path="url(#f)"/>
    <g clip-path="url(#f)">
      <defs>
        <path id="g" d="M8 184h83.8l39-39v-29H61.2L8 24.5z"/>
      </defs>
      <clipPath id="h">
        <path d="M 8 184 L 91.8 184 L 130.8 145 L 130.8 116 L 61.2 116 L 8 24.5 Z" overflow="visible"/>
      </clipPath>
      <g clip-path="url(#h)">
        <path fill="#ffcd40" d="M96 56l34.6 60L92 184h92V56z"/>
        <path fill="url(#a)" d="M96 56l34.6 60L92 184h92V56z"/>
      </g>
    </g>
    <g clip-path="url(#f)">
      <path fill="#ffcd40" d="M96 56l34.6 60L92 184h92V56z"/>
      <path fill="url(#i)" d="M96 56l34.6 60L92 184h92V56z"/>
    </g>
    <g clip-path="url(#f)">
      <defs>
        <path id="j" d="M96 56l34.6 60L92 184h92V56z"/>
      </defs>
      <clipPath id="k">
        <path d="M 96 56 L 130.6 116 L 92 184 L 184 184 L 184 56 Z" overflow="visible"/>
      </clipPath>
      <g clip-path="url(#k)">
        <path fill="#db4437" d="M22 8v108h39.4L96 56h88V8z"/>
        <path fill="url(#l)" d="M22 8v108h39.4L96 56h88V8z"/>
      </g>
    </g>
    <path fill="url(#d)" d="M 96 56 L 96 77 L 174.4 56 Z" clip-path="url(#f)"/>
    <g clip-path="url(#f)">
      <defs>
        <path id="m" d="M22 8v40.3L61.4 116 96 56h88V8z"/>
      </defs>
      <clipPath id="n">
        <path d="M 22 8 L 22 48.3 L 61.4 116 L 96 56 L 184 56 L 184 8 Z" overflow="visible"/>
      </clipPath>
      <g clip-path="url(#n)">
        <path fill="#0f9d58" d="M8 184h83.8l39-39v-29H61.2L8 24.5z"/>
        <path fill="url(#o)" d="M8 184h83.8l39-39v-29H61.2L8 24.5z"/>
      </g>
    </g>
    <path fill="url(#p)" d="M 22 48.5 L 79.2 105.7 L 61.4 116 Z" clip-path="url(#f)"/>
    <path fill="url(#q)" d="M 91.8 184 L 112.8 105.7 L 130.6 116 Z" clip-path="url(#f)"/>
    <g clip-path="url(#f)">
      <circle cx="96" cy="96" r="40" fill="#f1f1f1"/>
      <circle cx="96" cy="96" r="32" fill="#4285f4"/>
    </g>
    <g clip-path="url(#f)">
      <path fill="#3e2723" fill-opacity=".2" d="M96 55c-22 0-40 18-40 40v1c0-22 18-40 40-40h88v-1H96z"/>
      <path fill="#fff" fill-opacity=".1" d="M130.6 116c-7 12-19.8 20-34.6 20s-27.7-8-34.6-20L8 24.5v1L61.4 117c7 12 19.8 20 34.6 20s27.7-8 34.6-20v-1z"/>
      <path fill="#3e2723" d="M97 56h-.5c22 .3 39.5 18 39.5 40s-17.6 39.7-39.5 40h.5c22 0 40-18 40-40s-18-40-40-40z" opacity=".1"/>
      <path fill="#fff" fill-opacity=".2" d="M131 117.3c3.4-5.8 5.4-12.6 5.4-20 0-4-.7-8.2-2-12 1 3.4 1.6 7 1.6 10.7 0 7.3-2 14-5.4 20L92 184h1l38.2-66.5z"/>
    </g>
    <g clip-path="url(#f)">
      <path fill="#fff" fill-opacity=".2" d="M96 9c48.4 0 87.7 39 88 87.5V96c0-48.6-39.4-88-88-88S8 47.4 8 96v.5C8.3 48 47.6 9 96 9z"/>
      <path fill="#3e2723" fill-opacity=".15" d="M96 183c48.4 0 87.7-39 88-87.5v.5c0 48.6-39.4 88-88 88S8 144.6 8 96v-.5C8.3 144 47.6 183 96 183z"/>
    </g>
    <circle cx="96" cy="96" r="88" fill="url(#r)"/>
    <path fill="none" d="M 0 0 L 192 0 L 192 192 L 0 192 Z"/>
  </g>
</svg>